<?xml version="1.0" encoding="UTF-8"?>
<svg id="Camada_2" data-name="Camada 2" xmlns="http://www.w3.org/2000/svg" viewBox="0 0 1898.37 863.33">
  <defs>
    <style>
      .cls-1 {
        fill: #a84e2b;
      }
    </style>
  </defs>
  <g id="Camada_1-2" data-name="Camada 1">
    <path class="cls-1" d="M0,0v863.33h1898.37V0H0ZM1765.25,732.61l-92.76,92.67-2.59-2.61-140.38-141.71-19.14-19.25c-9.93-10-27.04-2.98-27.04,11.07v123.25c0,14.92-12.14,26.94-26.94,26.94H66.36c-14.92,0-27.04-12.03-27.04-26.94V64.99c0-14.92,12.12-26.94,27.04-26.94h1762.68c14.91,0,27.04,12.03,27.04,26.94v355.69c0,14.92-12.12,26.94-27.04,26.94h-112.2c-17.02,0-25.59,20.49-13.66,32.61l22.42,22.72,127.68,129.59,2.4,2.4,3.38,3.75-93.81,93.91Z"/>
  </g>
</svg>