<?xml version="1.0" encoding="UTF-8"?>
<svg id="Camada_2" data-name="Camada 2" xmlns="http://www.w3.org/2000/svg" viewBox="0 0 1086.84 613.15">
  <defs>
    <style>
      .cls-1 {
        fill: #a84e2b;
      }
    </style>
  </defs>
  <g id="Camada_1-2" data-name="Camada 1">
    <path class="cls-1" d="M0,0v613.15h1086.84V0H0ZM1010.63,538.31l-53.11,53.05-1.48-1.49-80.37-81.13-10.96-11.02c-5.68-5.73-15.48-1.71-15.48,6.34v70.56c0,8.54-6.95,15.43-15.43,15.43H37.99c-8.54,0-15.48-6.89-15.48-15.43V37.21c0-8.54,6.94-15.43,15.48-15.43h1009.16c8.54,0,15.48,6.89,15.48,15.43v322.52c0,8.54-6.94,15.43-15.48,15.43h-64.24c-9.74,0-14.65,11.73-7.82,18.67l12.84,13.01,73.1,74.19,1.37,1.37,1.93,2.15-53.71,53.76Z"/>
  </g>
</svg>