<?xml version="1.0" encoding="UTF-8"?>
<svg id="Camada_2" data-name="Camada 2" xmlns="http://www.w3.org/2000/svg" viewBox="0 0 73.84 73.89">
  <defs>
    <style>
      .cls-1 {
        fill: #a84e2b;
      }
    </style>
  </defs>
  <g id="Camada_1-2" data-name="Camada 1">
    <path class="cls-1" d="M73.84,9.71v54.52c-.26,1.31-.58,2.58-1.2,3.78-1.25,2.44-3.79,4.61-6.42,5.41-.68.2-1.38.26-2.05.47h-18.6v-26.1h10.96l2.16-12.98h-13.12v-8.8h13.12v-12.98h-14.35c-5.38,0-11.75,6.38-11.75,11.75v10.02h-8.65v12.98h8.65v26.1H9.66c-5.14-.71-9.21-4.81-9.66-10.03V10.08C.41,5.29,3.95,1.27,8.64.26,27.45-.09,46.39-.09,65.19.26c4.4.86,8.21,4.97,8.65,9.45Z"/>
  </g>
</svg>