<?xml version="1.0" encoding="UTF-8"?>
<svg id="Camada_2" data-name="Camada 2" xmlns="http://www.w3.org/2000/svg" viewBox="0 0 96.44 97.77">
  <defs>
    <style>
      .cls-1 {
        fill: #a84e2b;
      }
    </style>
  </defs>
  <g id="Camada_1-2" data-name="Camada 1">
    <g>
      <rect class="cls-1" x="76.62" y="19.51" width=".28" height="19.51"/>
      <path class="cls-1" d="M96.08,77.99l-.25-.25-13.27-13.47-2.33-2.36c-1.24-1.26-.35-3.39,1.42-3.39h11.66c1.55,0,2.8-1.26,2.8-2.8V2.8c0-1.55-1.26-2.8-2.8-2.8H2.8C1.26,0,0,1.26,0,2.8v91.92c0,1.55,1.26,2.8,2.8,2.8h51.78c1.55,0,2.8-1.25,2.8-2.8v-12.81c0-1.47,1.78-2.2,2.81-1.15l1.99,2.01,14.59,14.73.27.27,9.64-9.64,9.75-9.75M76.61,36.21c0,1.55-1.26,2.8-2.8,2.8h-16.14l-16.4.06c-1.54,0-2.79,1.26-2.79,2.8l-.03,16.93-.24,16.46c-.02,1.53-1.27,2.76-2.8,2.76h-13.65c-1.55,0-2.8-1.26-2.8-2.8V22.31c0-1.55,1.26-2.8,2.8-2.8h52.06c1.55,0,2.8,1.26,2.8,2.8v13.9ZM76.9,39.01h-.28v-19.51h.28v19.51Z"/>
    </g>
  </g>
</svg>