<?xml version="1.0" encoding="UTF-8"?>
<svg id="Camada_2" data-name="Camada 2" xmlns="http://www.w3.org/2000/svg" viewBox="0 0 969.08 740.34">
  <g id="Camada_1-2" data-name="Camada 1">
    <path d="M969.08,593.5l-73.84,73.91-73.01,72.93-2.04-2.04-110.49-111.55-15.07-15.15c-7.8-7.88-21.28-2.35-21.28,8.71v97.01c0,11.74-9.54,21.2-21.21,21.2H21.28c-11.74,0-21.28-9.47-21.28-21.2V21.21C0,9.47,9.54,0,21.28,0h924.17c11.74,0,21.28,9.47,21.28,21.21v400.69c0,11.74-9.54,21.2-21.28,21.2h-88.3c-13.4,0-20.15,16.13-10.75,25.67l17.64,17.87,100.49,102.01,1.89,1.89,2.65,2.95Z"/>
  </g>
</svg>