<?xml version="1.0" encoding="UTF-8"?>
<svg id="Camada_2" data-name="Camada 2" xmlns="http://www.w3.org/2000/svg" viewBox="0 0 189.84 97.77">
  <g id="Camada_1-2" data-name="Camada 1">
    <path d="M189.84,78.37l-9.76,9.76-9.63,9.64-.28-.27-14.59-14.73-1.98-2.01c-1.04-1.04-2.81-.31-2.81,1.15v12.81c0,1.55-1.26,2.8-2.81,2.8H2.8c-1.55,0-2.8-1.25-2.8-2.8V2.8C0,1.25,1.25,0,2.8,0h183.92c1.55,0,2.8,1.25,2.8,2.8v52.91c0,1.55-1.25,2.8-2.8,2.8h-11.67c-1.76,0-2.66,2.13-1.41,3.39l2.32,2.37,13.27,13.46.25.26.36.38Z"/>
  </g>
</svg>