<?xml version="1.0" encoding="UTF-8"?>
<svg id="Camada_2" data-name="Camada 2" xmlns="http://www.w3.org/2000/svg" viewBox="0 0 414 525.88">
  <g id="Camada_1-2" data-name="Camada 1">
    <path d="M414,483.57l-21.28,21.28-21,21.02-.61-.59-31.82-32.12-4.32-4.38c-2.27-2.27-6.13-.68-6.13,2.51l-.02,27.94c0,3.38-2.73,6.11-6.11,6.11H6.11c-3.38,0-6.11-2.73-6.11-6.11V6.11C0,2.73,2.73,0,6.11,0h401.09c3.38,0,6.11,2.73,6.11,6.11v428.05c0,3.38-2.73,6.11-6.11,6.11h-25.45c-3.84,0-5.8,4.65-3.07,7.39l5.06,5.17,28.94,29.35.55.57.78.83Z"/>
  </g>
</svg>