<?xml version="1.0" encoding="UTF-8"?>
<svg id="Camada_2" data-name="Camada 2" xmlns="http://www.w3.org/2000/svg" viewBox="0 0 72.25 71.96">
  <defs>
    <style>
      .cls-1 {
        fill: #a84e2b;
      }
    </style>
  </defs>
  <g id="Camada_1-2" data-name="Camada 1">
    <g>
      <path class="cls-1" d="M16.12.03l40.14-.03c8.44.95,15.06,7.71,15.99,16.12v39.7c-.94,8.48-7.64,15.22-16.14,16.14H16.41c-8.49-.94-15.21-7.64-16.14-16.14.63-12.89-.84-26.58-.01-39.38C.81,8.04,7.81.96,16.12.03ZM54.8,13.03c-3.91.67-3.82,7.03.66,7.16,5.12.16,4.67-8.07-.66-7.16ZM35.38,17.94c-12.51.65-20.65,13.6-15.66,25.19,5.24,12.16,21.58,14.69,30.23,4.59,10.26-11.98,1.09-30.6-14.57-29.78Z"/>
      <path class="cls-1" d="M35.04,25.21c14.65-1.49,16.23,20.5,2.14,21.58s-15.9-20.17-2.14-21.58Z"/>
    </g>
  </g>
</svg>