<?xml version="1.0" encoding="UTF-8"?>
<svg id="Camada_2" data-name="Camada 2" xmlns="http://www.w3.org/2000/svg" viewBox="0 0 315.63 102.48">
  <defs>
    <style>
      .cls-1 {
        fill: #496046;
        font-family: Lato-Semibold, Lato;
        font-size: 17.65px;
        font-weight: 600;
      }

      .cls-2 {
        fill: #c8c0ad;
      }

      .cls-3 {
        fill: #a84e2b;
      }

      .cls-4 {
        letter-spacing: 0em;
      }

      .cls-5 {
        letter-spacing: 0em;
      }
    </style>
  </defs>
  <g id="Camada_1-2" data-name="Camada 1">
    <text class="cls-1" transform="translate(196.41 92.64)"><tspan class="cls-5" x="0" y="0">c</tspan><tspan class="cls-4" x="8.31" y="0">onstruction</tspan></text>
    <g>
      <path d="M146.35,31.44c-1.34-.93-2.99-1.24-4.54-1.24-8.87,0-14.95,10.83-17.84,25.26l-4.12,20.41h-6.8l10.21-51.03h6.5l-2.47,11.24c3.81-8.45,9.38-12.27,15.67-12.27,2.06,0,4.54.41,6.39,1.96l-2.99,5.67Z"/>
      <path d="M175.73,67.01c-5.88,6.29-12.78,10-20.52,10-10,0-14.85-6.19-14.85-16.5,0-7.11,2.37-17.11,6.08-23.82,3.92-7.01,10.52-12.99,20.1-12.99,6.91,0,13.3,3.2,13.3,11.24,0,12.58-15.77,17.53-32.06,18.87-.41,2.78-.62,5.57-.62,7.32,0,7.11,2.68,10.1,8.45,10.1,5.46,0,10.72-2.58,16.29-8.15l3.82,3.92ZM148.82,48.15c15.67-1.65,24.54-6.6,24.54-13.2,0-3.4-2.37-5.57-7.32-5.57-5.67,0-9.69,2.89-12.37,6.91-2.27,3.3-3.81,7.63-4.85,11.86Z"/>
      <path d="M227.48,8.56c-2.06-1.34-5.67-2.47-10.93-2.47-11.55,0-16.19,5.36-18.56,17.42l-.52,2.17h28.97l-10,50.21h-6.7l8.87-44.13h-22.37l-10.31,51.34c-2.17,11.03-6.6,16.91-15.77,16.91-2.99,0-6.8-.62-8.97-2.16l2.78-5.36c1.55,1.13,3.81,1.44,5.57,1.44,5.77,0,8.35-2.89,10-11.03l10.21-51.14h-9.69l1.24-6.08h9.59l.41-1.86c3.09-13.92,8.14-23.82,25.57-23.82,6.29,0,10.83,1.34,13.71,3.4l-3.09,5.15Z"/>
      <path d="M242.02,24.85l-2.89,13.71c4.64-9.28,11.75-14.85,19.79-14.85,6.8,0,10.41,3.92,10.41,11.86,0,6.19-2.16,17.53-7.63,40.31h-6.7c5.88-25.05,7.63-35.57,7.63-39.69,0-4.54-2.06-6.39-5.05-6.39-6.7,0-18.25,9.48-22.17,29.38l-3.3,16.7h-6.8l10.21-51.03h6.5Z"/>
      <path d="M306.97,68.87c-4.23,5.05-10,8.25-17.53,8.25-11.13,0-16.08-6.7-16.08-18.66,0-8.45,2.58-19.07,8.56-26.39,4.33-5.26,10.21-8.45,17.73-8.45,10.93,0,15.98,6.7,15.98,18.76,0,8.45-2.47,19.07-8.66,26.5ZM298.93,29.59c-5.98,0-10.41,3.2-13.09,7.73-3.92,6.29-5.57,15.98-5.57,21.86,0,6.5,1.65,12.06,10,12.06,6.08,0,9.9-3.09,12.89-7.94,3.92-6.29,5.67-15.36,5.67-21.65s-1.75-12.06-9.9-12.06Z"/>
    </g>
    <rect class="cls-2" x="76.62" y="24.22" width=".28" height="19.51"/>
    <path class="cls-3" d="M96.08,82.7l-.25-.25-13.27-13.47-2.33-2.36c-1.24-1.26-.35-3.39,1.42-3.39h11.66c1.55,0,2.8-1.26,2.8-2.8V7.52c0-1.55-1.26-2.8-2.8-2.8H2.8c-1.55,0-2.8,1.26-2.8,2.8v91.92c0,1.55,1.26,2.8,2.8,2.8h51.78c1.55,0,2.8-1.25,2.8-2.8v-12.81c0-1.47,1.78-2.2,2.81-1.15l1.99,2.01,14.59,14.73.27.27,9.64-9.64,9.75-9.75-.36-.39ZM76.61,40.92c0,1.55-1.26,2.8-2.8,2.8h-16.14l-16.4.06c-1.54,0-2.79,1.26-2.79,2.8l-.03,16.93-.24,16.46c-.02,1.53-1.27,2.76-2.8,2.76h-13.65c-1.55,0-2.8-1.26-2.8-2.8V27.02c0-1.55,1.26-2.8,2.8-2.8h52.06c1.55,0,2.8,1.26,2.8,2.8v13.9Z"/>
  </g>
</svg>