<?xml version="1.0" encoding="UTF-8"?>
<svg id="Camada_2" data-name="Camada 2" xmlns="http://www.w3.org/2000/svg" viewBox="0 0 97.3 72.95">
  <defs>
    <style>
      .cls-1 {
        fill: #a84e2b;
      }
    </style>
  </defs>
  <g id="Camada_1-2" data-name="Camada 1">
    <g>
      <path class="cls-1" d="M97.24,20.52v44.63c-.86,4.4-4.13,7.42-8.64,7.78H8.83C4.99,73.09,0,68.94,0,65.05V20.52l40.09,26.67c5.19,3.59,11.86,3.6,17.06,0l40.09-26.67Z"/>
      <path class="cls-1" d="M97.24,7.79c.07.57.07,1.9,0,2.47-.32,2.49-2.25,4.92-4.31,6.23-13.06,7.98-25.52,17.97-38.63,25.75-3.75,2.23-6.43,2.8-10.41.57L2.4,14.99C-2.81,9.2,1.01.6,8.64,0h80.15c4.08.34,7.95,3.66,8.45,7.79Z"/>
    </g>
  </g>
</svg>