<?xml version="1.0" encoding="UTF-8"?>
<svg id="Camada_2" data-name="Camada 2" xmlns="http://www.w3.org/2000/svg" viewBox="0 0 73.89 73.89">
  <defs>
    <style>
      .cls-1 {
        fill: #a84e2b;
      }
    </style>
  </defs>
  <g id="Camada_1-2" data-name="Camada 1">
    <path class="cls-1" d="M61.48,0c.91.25,1.86.35,2.77.62,5.18,1.55,9.2,6.65,9.62,12.03l.02,48.47c-.54,6.74-6.03,12.23-12.77,12.77H12.77c-5.43-.39-10.59-4.41-12.16-9.64-.27-.91-.36-1.86-.62-2.77V12.41C.7,6.1,6.03.59,12.41,0h49.07ZM22.35,12.3c-4.92.03-7.43,2.84-9.03,7.15-1.24,3.35-1.22,5.85-.25,9.27,3.78,13.38,14.83,25.5,27.75,30.56,4.8,1.88,8.42,3.19,13.53,1.34,4.34-1.58,7.32-4.2,7.27-9.18-.01-1.38-.98-1.78-2.02-2.43-1.94-1.21-4.15-2.25-6.15-3.38-1.55-.87-3.2-2.75-4.96-1.4-1.38,1.06-4.36,5.4-5.58,5.67-.95.21-2.15-.57-2.97-1.01-6.14-3.28-12.55-9.49-15.45-15.87-.96-2.12-.45-2.56,1.13-4.03,1.41-1.31,4.92-3.16,4.52-5.38-1.71-2.76-3.07-5.75-4.76-8.52-.32-.53-1.42-2.41-1.86-2.62-.29-.14-.84-.19-1.17-.19Z"/>
  </g>
</svg>